<svg xmlns="http://www.w3.org/2000/svg" viewBox="0 0 100 100">
  <defs>
    <linearGradient id="toothGrad" x1="0%" y1="0%" x2="100%" y2="100%">
      <stop offset="0%" style="stop-color:#14b8a6"/>
      <stop offset="100%" style="stop-color:#0d9488"/>
    </linearGradient>
  </defs>
  <path fill="url(#toothGrad)" d="M50 10c-15 0-25 8-30 20-3 8-2 18 2 28 3 8 5 18 8 32 1 4 5 6 8 4 2-1 3-3 4-6l6-25c1-3 3-5 6-5s5 2 6 5l6 25c1 3 2 5 4 6 3 2 7 0 8-4 3-14 5-24 8-32 4-10 5-20 2-28-5-12-15-20-30-20h-8z"/>
</svg>
